<?xml version="1.0" standalone="no"?><svg xmlns="http://www.w3.org/2000/svg" width="1080" height="1080"><path fill="#f368e0" fill-opacity="1" d="M0,32L40,32C80,32,160,32,240,48C320,64,400,96,480,138.7C560,181,640,235,720,240C800,245,880,203,960,165.3C1040,128,1120,96,1200,106.7C1280,117,1360,171,1400,197.3L1440,224L1440,320L1400,320C1360,320,1280,320,1200,320C1120,320,1040,320,960,320C880,320,800,320,720,320C640,320,560,320,480,320C400,320,320,320,240,320C160,320,80,320,40,320L0,320Z"></path></svg>